<svg id="svg" version="1.1" xmlns="http://www.w3.org/2000/svg" xmlns:xlink="http://www.w3.org/1999/xlink" width="400" height="400" viewBox="0, 0, 400,400"><g id="svgg"><path id="path0" d="M143.359 16.283 L 143.359 32.617 146.826 32.654 C 151.249 32.700,150.845 32.684,158.228 33.107 C 159.134 33.158,161.383 33.330,163.574 33.514 C 164.219 33.569,165.933 33.741,167.383 33.898 C 168.833 34.055,170.371 34.217,170.801 34.258 C 171.661 34.340,178.265 35.300,179.199 35.479 C 179.521 35.540,179.961 35.616,180.176 35.646 C 180.763 35.730,182.931 36.124,184.473 36.428 C 185.225 36.576,186.180 36.747,186.596 36.808 C 187.011 36.869,188.330 37.143,189.525 37.415 C 190.721 37.688,191.919 37.946,192.188 37.989 C 192.757 38.080,192.748 38.078,195.801 38.842 C 197.090 39.165,198.364 39.477,198.633 39.536 C 199.619 39.751,203.492 40.820,206.152 41.611 C 207.656 42.058,209.019 42.453,209.180 42.488 C 209.341 42.524,210.396 42.869,211.523 43.254 C 212.651 43.639,213.834 44.001,214.152 44.058 C 214.470 44.114,214.822 44.231,214.933 44.316 C 215.045 44.402,215.752 44.673,216.504 44.920 C 217.256 45.167,218.135 45.477,218.457 45.609 C 218.779 45.741,219.482 46.002,220.020 46.189 C 220.971 46.520,223.142 47.343,223.926 47.669 C 224.141 47.759,224.976 48.108,225.781 48.446 C 226.587 48.784,227.334 49.081,227.441 49.105 C 227.549 49.130,227.988 49.302,228.418 49.487 C 228.848 49.673,230.034 50.182,231.055 50.617 C 232.075 51.053,233.481 51.672,234.180 51.994 C 234.878 52.316,235.801 52.720,236.230 52.891 C 237.029 53.209,247.942 58.697,249.707 59.668 C 250.244 59.964,251.035 60.387,251.465 60.610 C 251.895 60.832,252.290 61.063,252.344 61.122 C 252.431 61.218,253.057 61.574,254.520 62.357 C 254.773 62.493,255.498 62.939,256.131 63.349 C 256.765 63.758,257.468 64.174,257.694 64.272 C 257.920 64.370,259.412 65.286,261.008 66.307 C 262.604 67.328,263.988 68.164,264.084 68.164 C 264.180 68.164,264.258 68.252,264.258 68.359 C 264.258 68.467,264.336 68.555,264.431 68.555 C 264.526 68.555,265.150 68.928,265.817 69.385 C 266.484 69.841,267.234 70.347,267.482 70.508 C 268.386 71.094,271.389 73.147,271.484 73.244 C 271.642 73.406,275.230 76.055,275.977 76.562 C 276.353 76.817,276.968 77.276,277.344 77.582 C 278.299 78.360,278.280 78.345,280.204 79.806 C 281.155 80.529,281.978 81.173,282.031 81.237 C 282.085 81.302,282.700 81.818,283.398 82.384 C 284.097 82.949,284.888 83.611,285.156 83.855 C 285.425 84.098,286.392 84.907,287.305 85.651 C 288.218 86.395,289.009 87.058,289.063 87.123 C 289.116 87.189,289.644 87.666,290.234 88.184 C 294.320 91.768,303.366 100.651,306.836 104.488 C 307.749 105.498,308.672 106.518,308.887 106.755 C 309.102 106.992,309.453 107.394,309.668 107.648 C 309.883 107.902,311.073 109.295,312.312 110.744 C 313.551 112.193,315.131 114.082,315.823 114.941 C 316.515 115.801,317.193 116.620,317.330 116.762 C 317.466 116.904,317.580 117.080,317.583 117.153 C 317.585 117.226,317.875 117.604,318.227 117.995 C 318.578 118.385,319.206 119.198,319.622 119.801 C 320.037 120.405,320.437 120.898,320.509 120.898 C 320.581 120.898,320.732 121.096,320.844 121.338 C 321.009 121.695,322.289 123.411,323.241 124.552 C 323.349 124.682,323.438 124.864,323.438 124.958 C 323.438 125.051,323.657 125.334,323.926 125.586 C 324.194 125.838,324.414 126.123,324.414 126.219 C 324.414 126.368,325.286 127.639,325.587 127.930 C 325.947 128.276,334.180 141.105,334.180 141.319 C 334.180 141.371,334.600 142.093,335.114 142.923 C 335.628 143.754,336.166 144.719,336.310 145.068 C 336.453 145.417,336.631 145.703,336.705 145.703 C 336.779 145.703,337.002 146.077,337.201 146.533 C 337.400 146.990,337.615 147.407,337.678 147.461 C 337.787 147.553,338.086 148.111,339.878 151.563 C 340.296 152.368,340.718 153.159,340.817 153.320 C 341.147 153.861,344.485 160.823,345.173 162.402 C 345.546 163.262,346.072 164.448,346.340 165.039 C 346.608 165.630,347.162 166.904,347.571 167.871 C 347.981 168.838,348.387 169.712,348.474 169.814 C 348.561 169.917,348.633 170.115,348.633 170.256 C 348.633 170.397,348.797 170.885,348.998 171.340 C 349.199 171.795,349.802 173.311,350.339 174.707 C 350.875 176.104,351.384 177.422,351.469 177.637 C 351.706 178.235,353.113 182.284,353.203 182.628 C 353.247 182.795,353.419 183.256,353.585 183.653 C 353.751 184.050,353.851 184.375,353.809 184.375 C 353.766 184.375,353.867 184.700,354.032 185.097 C 354.198 185.494,354.368 185.999,354.410 186.220 C 354.452 186.441,354.706 187.280,354.976 188.086 C 355.464 189.546,356.806 193.975,356.929 194.531 C 356.964 194.692,357.181 195.527,357.409 196.387 C 358.636 201.000,360.324 208.188,360.479 209.461 C 360.531 209.885,360.658 210.390,360.762 210.584 C 360.866 210.779,360.916 210.938,360.872 210.938 C 360.828 210.938,360.875 211.355,360.977 211.865 C 361.078 212.375,361.201 213.057,361.250 213.379 C 361.299 213.701,361.393 214.185,361.460 214.453 C 361.526 214.722,361.602 215.073,361.629 215.234 C 361.655 215.396,361.735 215.879,361.805 216.309 C 361.875 216.738,361.973 217.331,362.023 217.627 C 362.238 218.889,363.096 224.772,363.184 225.586 C 363.225 225.962,363.362 227.061,363.488 228.027 C 363.795 230.375,363.812 230.533,363.943 232.227 C 364.005 233.032,364.144 234.658,364.252 235.840 C 364.359 237.021,364.496 238.779,364.556 239.746 C 364.615 240.713,364.700 242.031,364.743 242.676 C 364.813 243.718,365.058 250.655,365.115 253.223 L 365.137 254.199 381.506 254.249 L 397.876 254.299 397.768 252.394 C 397.708 251.346,397.610 248.906,397.550 246.973 C 397.420 242.793,397.309 240.240,397.176 238.379 C 397.123 237.627,397.029 236.089,396.967 234.961 C 396.906 233.833,396.820 232.778,396.776 232.617 C 396.732 232.456,396.647 231.709,396.587 230.957 C 396.367 228.227,396.269 227.216,396.068 225.586 C 395.955 224.673,395.825 223.486,395.780 222.949 C 395.734 222.412,395.641 221.665,395.574 221.289 C 395.507 220.913,395.428 220.419,395.398 220.190 C 395.369 219.962,395.298 219.479,395.241 219.116 C 395.185 218.754,395.084 218.018,395.017 217.480 C 394.883 216.395,394.188 211.947,393.857 210.059 C 393.820 209.844,393.730 209.316,393.657 208.887 C 393.584 208.457,393.436 207.710,393.328 207.227 C 393.219 206.743,393.092 206.128,393.046 205.859 C 392.999 205.591,392.917 205.151,392.864 204.883 C 392.635 203.732,392.569 203.389,392.477 202.887 C 392.423 202.596,392.247 201.761,392.085 201.032 C 391.922 200.303,391.753 199.487,391.708 199.219 C 391.638 198.803,391.263 197.212,390.901 195.801 C 390.845 195.586,390.756 195.190,390.702 194.922 C 390.437 193.613,388.805 187.329,388.190 185.254 C 387.809 183.965,387.458 182.753,387.410 182.560 C 387.363 182.367,387.234 181.928,387.124 181.583 C 386.589 179.906,385.174 175.276,385.158 175.150 C 385.148 175.071,385.002 174.678,384.834 174.276 C 384.666 173.874,384.490 173.334,384.443 173.075 C 384.396 172.816,384.228 172.352,384.068 172.044 C 383.909 171.736,383.816 171.484,383.862 171.484 C 383.908 171.484,383.684 170.803,383.364 169.971 C 383.045 169.138,382.694 168.149,382.584 167.773 C 382.474 167.397,382.252 166.782,382.090 166.406 C 381.647 165.376,381.524 165.054,381.050 163.672 C 380.810 162.974,380.459 162.051,380.269 161.621 C 379.873 160.722,379.647 160.142,379.585 159.863 C 379.560 159.756,379.364 159.272,379.148 158.789 C 378.932 158.306,378.510 157.295,378.210 156.543 C 377.910 155.791,377.592 155.092,377.504 154.990 C 377.416 154.888,377.344 154.693,377.344 154.556 C 377.344 154.419,377.036 153.675,376.660 152.903 C 376.284 152.130,375.977 151.431,375.977 151.348 C 375.977 150.762,367.112 133.014,365.744 130.859 C 365.505 130.483,365.194 129.890,365.053 129.541 C 364.912 129.192,364.725 128.906,364.638 128.906 C 364.551 128.906,364.417 128.708,364.341 128.467 C 364.266 128.225,363.908 127.564,363.547 126.998 C 363.186 126.432,362.890 125.905,362.890 125.826 C 362.890 125.748,362.510 125.105,362.045 124.398 C 361.580 123.691,361.137 122.988,361.061 122.836 C 360.888 122.490,360.745 122.251,359.196 119.722 C 358.507 118.597,357.782 117.494,357.585 117.273 C 357.388 117.051,357.227 116.812,357.227 116.742 C 357.227 116.603,354.684 112.659,354.492 112.500 C 354.427 112.446,354.172 112.070,353.926 111.665 C 353.679 111.259,353.374 110.820,353.248 110.688 C 353.122 110.557,352.721 109.980,352.357 109.406 C 351.992 108.832,351.591 108.259,351.464 108.132 C 351.337 108.006,351.122 107.694,350.986 107.439 C 350.673 106.854,348.975 104.612,348.779 104.525 C 348.699 104.489,348.633 104.382,348.633 104.287 C 348.633 104.114,344.525 98.599,344.020 98.093 C 343.871 97.945,343.750 97.764,343.749 97.691 C 343.749 97.618,343.501 97.295,343.200 96.973 C 342.898 96.650,342.569 96.241,342.468 96.062 C 342.367 95.884,341.978 95.400,341.602 94.987 C 341.226 94.575,340.531 93.728,340.057 93.106 C 339.584 92.484,338.925 91.673,338.593 91.304 C 338.260 90.935,337.856 90.467,337.695 90.265 C 337.418 89.917,336.276 88.576,334.767 86.826 C 334.392 86.391,333.909 85.858,333.693 85.640 C 333.477 85.423,333.002 84.896,332.637 84.469 C 329.864 81.219,320.626 71.812,316.530 68.066 C 313.918 65.677,313.911 65.671,312.511 64.453 C 311.831 63.862,311.090 63.194,310.862 62.969 C 310.493 62.602,307.637 60.167,305.273 58.203 C 304.790 57.802,303.823 56.997,303.125 56.415 C 302.427 55.834,301.504 55.097,301.074 54.779 C 300.645 54.462,300.249 54.146,300.195 54.078 C 300.142 54.011,299.438 53.466,298.633 52.868 C 297.827 52.269,297.039 51.665,296.881 51.525 C 296.723 51.384,295.537 50.503,294.244 49.567 C 292.952 48.630,291.807 47.791,291.699 47.703 C 291.136 47.238,289.261 45.898,289.173 45.898 C 289.117 45.898,288.440 45.438,287.669 44.875 C 286.897 44.313,285.722 43.500,285.056 43.069 C 284.390 42.638,283.063 41.765,282.108 41.130 C 279.931 39.681,276.766 37.695,276.635 37.695 C 276.581 37.695,276.257 37.483,275.915 37.224 C 275.290 36.750,271.927 34.766,271.749 34.766 C 271.697 34.766,271.374 34.558,271.032 34.304 C 270.690 34.050,269.839 33.533,269.141 33.155 C 268.442 32.776,267.388 32.193,266.797 31.859 C 266.206 31.525,265.151 30.968,264.453 30.622 C 263.755 30.276,263.140 29.945,263.086 29.887 C 263.032 29.829,262.285 29.431,261.426 29.002 C 260.566 28.573,259.819 28.179,259.766 28.125 C 259.651 28.010,256.612 26.513,253.027 24.806 C 251.631 24.141,250.137 23.420,249.707 23.205 C 248.714 22.707,243.717 20.490,243.457 20.432 C 243.350 20.408,242.998 20.252,242.676 20.084 C 242.354 19.916,241.738 19.666,241.309 19.528 C 240.879 19.390,240.352 19.168,240.137 19.035 C 239.922 18.902,239.431 18.694,239.047 18.572 C 238.662 18.450,238.006 18.177,237.589 17.964 C 237.172 17.752,236.679 17.578,236.494 17.578 C 236.308 17.578,236.106 17.497,236.044 17.398 C 235.983 17.299,235.651 17.156,235.307 17.080 C 234.963 17.004,234.546 16.877,234.381 16.796 C 233.456 16.343,232.231 15.863,229.785 14.996 C 228.281 14.463,226.963 14.004,226.855 13.977 C 225.886 13.734,225.459 13.597,225.293 13.475 C 225.072 13.313,223.896 12.919,223.282 12.801 C 223.057 12.757,222.011 12.415,220.958 12.041 C 219.905 11.666,218.384 11.174,217.578 10.948 C 216.772 10.721,215.529 10.359,214.815 10.143 C 214.101 9.927,213.354 9.713,213.155 9.666 C 212.800 9.583,211.517 9.248,210.938 9.087 C 210.776 9.042,210.029 8.823,209.277 8.599 C 207.533 8.081,202.847 6.893,201.953 6.742 C 201.577 6.678,201.123 6.582,200.943 6.528 C 200.764 6.473,200.456 6.398,200.259 6.360 C 200.062 6.322,199.522 6.189,199.059 6.064 C 198.596 5.940,197.981 5.808,197.691 5.771 C 197.401 5.734,196.786 5.603,196.324 5.478 C 195.861 5.354,195.247 5.214,194.958 5.169 C 194.670 5.123,193.818 4.961,193.066 4.808 C 192.314 4.656,191.392 4.480,191.016 4.418 C 190.091 4.264,189.486 4.138,189.096 4.017 C 188.916 3.962,188.462 3.879,188.086 3.833 C 187.710 3.787,186.875 3.655,186.230 3.539 C 185.586 3.424,184.676 3.283,184.209 3.226 C 183.360 3.124,183.181 3.095,181.348 2.763 C 180.811 2.666,180.239 2.584,180.078 2.581 C 179.917 2.579,179.082 2.477,178.223 2.355 C 177.363 2.233,176.309 2.090,175.879 2.037 C 175.449 1.984,174.878 1.904,174.609 1.858 C 174.341 1.812,173.506 1.717,172.754 1.646 C 171.023 1.482,170.634 1.442,169.434 1.303 C 168.896 1.240,167.930 1.142,167.285 1.085 C 166.641 1.027,165.542 0.930,164.844 0.867 C 164.146 0.805,163.091 0.721,162.500 0.681 C 161.909 0.640,160.635 0.551,159.668 0.483 C 156.714 0.276,154.817 0.203,148.975 0.073 L 143.359 -0.052 143.359 16.283 M143.490 65.560 C 143.418 65.631,143.359 72.970,143.359 81.868 L 143.359 98.047 144.287 98.065 C 149.659 98.172,154.714 98.421,157.715 98.726 C 158.252 98.781,159.175 98.870,159.766 98.924 C 161.089 99.047,161.863 99.146,165.820 99.704 C 167.056 99.878,168.330 100.070,168.652 100.130 C 169.444 100.278,169.900 100.354,170.668 100.466 C 171.025 100.518,171.552 100.609,171.840 100.667 C 172.128 100.725,172.583 100.817,172.852 100.871 C 174.041 101.108,176.312 101.577,176.758 101.677 C 177.026 101.737,177.422 101.815,177.637 101.849 C 178.372 101.967,186.424 104.080,187.678 104.484 C 188.366 104.705,189.113 104.922,189.338 104.965 C 189.562 105.008,190.933 105.455,192.383 105.958 C 193.833 106.462,195.195 106.918,195.410 106.972 C 195.625 107.026,196.064 107.183,196.387 107.321 C 196.709 107.459,197.764 107.857,198.730 108.205 C 199.697 108.553,201.455 109.243,202.637 109.737 C 203.818 110.232,204.829 110.644,204.883 110.652 C 204.937 110.660,205.586 110.948,206.326 111.291 C 207.066 111.633,207.707 111.914,207.752 111.914 C 207.843 111.914,212.040 113.903,213.086 114.442 C 216.332 116.114,218.404 117.206,218.785 117.443 C 219.034 117.598,219.766 118.013,220.410 118.364 C 222.088 119.279,222.274 119.386,223.164 119.959 C 223.604 120.243,224.263 120.636,224.629 120.833 C 224.995 121.030,225.571 121.389,225.910 121.631 C 226.248 121.873,226.605 122.070,226.702 122.070 C 226.800 122.070,227.050 122.226,227.258 122.415 C 227.587 122.715,229.083 123.716,230.100 124.316 C 230.608 124.616,232.440 125.917,234.708 127.588 C 235.838 128.420,236.832 129.102,236.915 129.102 C 236.999 129.102,237.118 129.233,237.180 129.395 C 237.242 129.556,237.420 129.688,237.575 129.688 C 237.731 129.688,237.887 129.765,237.923 129.859 C 237.959 129.953,238.691 130.560,239.551 131.207 C 245.629 135.787,254.128 143.772,260.059 150.474 C 260.811 151.324,261.602 152.207,261.816 152.438 C 262.156 152.802,265.267 156.593,265.666 157.129 C 265.746 157.236,266.151 157.731,266.567 158.229 C 266.983 158.727,267.519 159.452,267.759 159.840 C 267.999 160.229,268.277 160.547,268.375 160.547 C 268.474 160.547,268.555 160.641,268.555 160.755 C 268.555 160.870,268.951 161.463,269.435 162.074 C 269.919 162.684,270.384 163.271,270.467 163.379 C 270.550 163.486,270.821 163.906,271.070 164.312 C 271.319 164.718,271.628 165.157,271.756 165.288 C 271.884 165.420,272.644 166.538,273.444 167.773 C 274.243 169.009,274.965 170.049,275.046 170.085 C 275.128 170.120,275.195 170.226,275.195 170.319 C 275.195 170.411,275.710 171.305,276.340 172.304 C 278.985 176.504,283.948 185.825,285.836 190.137 C 286.118 190.781,286.467 191.572,286.611 191.895 C 286.754 192.217,287.199 193.271,287.598 194.238 C 287.997 195.205,288.438 196.260,288.578 196.582 C 288.719 196.904,288.941 197.520,289.072 197.949 C 289.204 198.379,289.469 199.082,289.662 199.512 C 290.033 200.336,293.111 209.390,293.248 210.059 C 293.292 210.273,293.472 210.977,293.648 211.621 C 294.255 213.848,295.541 218.849,295.632 219.336 C 295.682 219.604,295.857 220.396,296.022 221.094 C 296.186 221.792,296.351 222.539,296.388 222.754 C 296.425 222.969,296.506 223.408,296.568 223.730 C 296.629 224.053,296.738 224.624,296.809 225.000 C 296.880 225.376,296.958 225.771,296.984 225.879 C 297.042 226.126,298.061 232.548,298.146 233.203 C 299.010 239.868,299.466 246.156,299.588 253.076 L 299.609 254.297 315.938 254.297 L 332.267 254.297 332.139 250.244 C 332.068 248.015,331.982 245.664,331.947 245.020 C 331.912 244.375,331.822 242.705,331.748 241.309 C 331.674 239.912,331.579 238.638,331.537 238.477 C 331.495 238.315,331.410 237.568,331.349 236.816 C 331.287 236.064,331.202 235.098,331.159 234.668 C 331.115 234.238,331.028 233.359,330.964 232.715 C 330.901 232.070,330.802 231.228,330.745 230.843 C 330.688 230.458,330.606 229.843,330.563 229.476 C 330.520 229.109,330.441 228.520,330.388 228.167 C 330.261 227.335,330.105 226.249,329.988 225.391 C 329.936 225.015,329.854 224.487,329.804 224.219 C 329.754 223.950,329.572 222.814,329.398 221.695 C 329.225 220.575,329.044 219.596,328.997 219.520 C 328.950 219.444,328.863 219.042,328.804 218.626 C 328.744 218.211,328.638 217.607,328.568 217.285 C 328.498 216.963,328.431 216.655,328.420 216.602 C 328.409 216.548,328.325 216.152,328.234 215.723 C 328.142 215.293,328.043 214.810,328.015 214.648 C 327.794 213.413,326.561 208.238,326.060 206.445 C 325.895 205.854,325.718 205.168,325.667 204.920 C 325.479 204.009,323.804 198.366,323.617 198.017 C 323.511 197.819,323.468 197.656,323.522 197.656 C 323.643 197.656,320.609 188.721,320.073 187.500 C 319.471 186.127,319.369 185.872,319.232 185.383 C 319.161 185.132,318.919 184.516,318.693 184.016 C 318.468 183.515,318.266 183.018,318.246 182.910 C 318.198 182.659,317.269 180.539,316.891 179.818 C 316.732 179.514,316.602 179.186,316.602 179.090 C 316.602 178.993,316.259 178.187,315.839 177.299 C 315.420 176.410,314.814 175.112,314.493 174.414 C 313.529 172.319,311.156 167.495,310.988 167.285 C 310.901 167.178,310.548 166.519,310.203 165.820 C 309.858 165.122,309.325 164.111,309.019 163.574 C 308.713 163.037,308.130 161.982,307.723 161.230 C 307.316 160.479,306.862 159.725,306.714 159.555 C 306.566 159.385,306.445 159.183,306.445 159.106 C 306.445 159.029,306.138 158.485,305.762 157.897 C 305.386 157.309,305.078 156.772,305.078 156.704 C 305.078 156.636,304.858 156.292,304.590 155.940 C 304.321 155.588,304.102 155.236,304.102 155.158 C 304.102 155.081,303.882 154.729,303.613 154.377 C 303.345 154.025,303.125 153.677,303.125 153.605 C 303.125 153.532,302.729 152.907,302.246 152.215 C 301.763 151.524,301.367 150.910,301.367 150.850 C 301.367 150.698,298.036 145.877,297.618 145.425 C 297.427 145.218,297.219 144.888,297.157 144.692 C 297.095 144.496,296.962 144.336,296.862 144.336 C 296.762 144.336,296.680 144.243,296.680 144.129 C 296.680 144.015,296.433 143.598,296.131 143.201 C 295.829 142.805,295.151 141.909,294.625 141.211 C 294.098 140.513,293.617 139.897,293.556 139.844 C 293.494 139.790,293.098 139.263,292.676 138.672 C 292.041 137.785,289.711 134.890,288.965 134.060 C 288.857 133.941,288.506 133.515,288.184 133.113 C 287.861 132.711,287.510 132.279,287.402 132.153 C 287.074 131.768,284.708 129.039,284.184 128.442 C 280.781 124.558,271.355 115.205,268.394 112.775 C 268.145 112.570,267.655 112.139,267.306 111.816 C 266.957 111.494,266.458 111.063,266.197 110.858 C 265.936 110.654,265.369 110.170,264.936 109.784 C 264.503 109.398,263.854 108.862,263.494 108.594 C 263.133 108.325,262.653 107.944,262.425 107.747 C 262.198 107.550,261.715 107.154,261.353 106.868 C 260.991 106.582,260.420 106.106,260.084 105.811 C 259.748 105.515,259.121 105.032,258.691 104.736 C 258.262 104.441,257.822 104.103,257.715 103.985 C 257.607 103.867,257.080 103.471,256.543 103.106 C 256.006 102.740,255.522 102.394,255.469 102.336 C 255.174 102.018,252.898 100.391,252.748 100.391 C 252.651 100.391,252.542 100.325,252.507 100.244 C 252.411 100.029,251.031 99.023,250.831 99.023 C 250.737 99.023,250.489 98.865,250.281 98.671 C 249.705 98.136,246.920 96.289,246.689 96.289 C 246.576 96.289,246.484 96.222,246.484 96.140 C 246.484 96.058,246.317 95.904,246.113 95.798 C 245.737 95.603,242.727 93.728,242.188 93.353 C 241.881 93.140,241.191 92.739,240.527 92.388 C 240.313 92.275,239.906 92.029,239.623 91.843 C 238.560 91.141,234.185 88.672,234.005 88.672 C 233.902 88.672,233.701 88.562,233.559 88.428 C 232.969 87.869,220.652 81.697,219.861 81.563 C 219.733 81.542,219.453 81.429,219.238 81.312 C 219.023 81.196,218.145 80.820,217.285 80.478 C 216.426 80.136,215.574 79.777,215.393 79.680 C 214.820 79.374,209.659 77.373,207.571 76.647 C 202.775 74.979,201.172 74.445,201.172 74.515 C 201.172 74.556,200.842 74.451,200.439 74.282 C 199.745 73.990,197.424 73.297,196.582 73.130 C 196.367 73.087,195.972 72.970,195.703 72.870 C 195.435 72.770,194.951 72.623,194.629 72.544 C 194.307 72.465,193.955 72.373,193.848 72.340 C 192.661 71.979,187.208 70.555,186.523 70.427 C 186.255 70.377,185.859 70.294,185.645 70.242 C 182.366 69.459,177.481 68.463,175.879 68.250 C 175.342 68.178,174.720 68.095,174.497 68.065 C 174.274 68.035,173.615 67.918,173.032 67.805 C 172.449 67.691,171.477 67.547,170.872 67.484 C 170.267 67.421,169.608 67.339,169.407 67.301 C 168.580 67.147,167.427 66.980,166.602 66.893 C 165.598 66.787,164.625 66.677,162.402 66.418 C 157.579 65.857,143.818 65.232,143.490 65.560 M143.045 130.748 C 143.001 130.863,142.988 138.199,143.016 147.049 L 143.066 163.142 143.750 163.197 C 144.126 163.228,145.752 163.301,147.363 163.360 C 148.975 163.419,151.348 163.596,152.637 163.753 C 153.926 163.910,155.432 164.084,155.984 164.139 C 156.536 164.194,157.195 164.285,157.449 164.341 C 157.702 164.396,158.174 164.487,158.496 164.541 C 158.818 164.595,159.478 164.722,159.961 164.822 C 160.444 164.922,161.104 165.052,161.426 165.109 C 162.001 165.212,162.505 165.317,163.477 165.537 C 164.168 165.694,164.306 165.730,164.746 165.873 C 164.961 165.943,165.356 166.045,165.625 166.099 C 165.894 166.154,166.465 166.292,166.895 166.406 C 167.324 166.520,167.808 166.645,167.969 166.685 C 168.130 166.725,168.833 166.951,169.531 167.188 C 170.229 167.424,170.933 167.648,171.094 167.686 C 171.364 167.748,174.689 168.936,176.758 169.709 C 177.241 169.890,178.208 170.297,178.906 170.614 C 179.604 170.932,180.220 171.196,180.273 171.201 C 180.580 171.232,187.954 175.078,189.616 176.074 C 191.783 177.373,198.229 181.891,199.231 182.813 C 199.407 182.974,199.798 183.281,200.102 183.496 C 200.406 183.711,200.793 184.024,200.962 184.191 C 201.131 184.358,201.836 184.973,202.528 185.558 C 204.342 187.091,209.264 191.990,211.052 194.043 C 211.894 195.010,212.696 195.917,212.834 196.059 C 212.973 196.201,213.088 196.377,213.091 196.449 C 213.095 196.522,213.468 196.987,213.922 197.483 C 214.375 197.978,214.878 198.583,215.039 198.826 C 215.200 199.069,216.052 200.246,216.931 201.441 C 217.811 202.636,218.953 204.304,219.470 205.149 C 219.987 205.994,220.552 206.917,220.724 207.200 C 221.399 208.306,221.961 209.319,222.419 210.254 C 222.682 210.791,222.953 211.274,223.021 211.328 C 223.153 211.432,224.641 214.431,225.443 216.211 C 225.710 216.802,226.106 217.681,226.325 218.164 C 226.800 219.213,227.734 221.601,227.734 221.764 C 227.734 221.827,227.902 222.252,228.107 222.707 C 228.937 224.549,231.217 232.385,231.559 234.570 C 231.618 234.946,231.758 235.605,231.870 236.035 C 232.097 236.907,232.172 237.286,232.314 238.281 C 232.367 238.657,232.459 239.207,232.518 239.502 C 232.577 239.798,232.664 240.369,232.711 240.772 C 232.758 241.174,232.835 241.768,232.881 242.090 C 232.983 242.807,233.241 245.197,233.303 245.996 C 233.398 247.233,233.646 251.870,233.632 252.148 C 233.624 252.310,233.664 252.771,233.721 253.174 L 233.823 253.906 250.076 253.906 C 262.534 253.906,266.383 253.961,266.565 254.143 C 266.750 254.328,266.779 253.935,266.702 252.336 C 266.648 251.212,266.558 249.282,266.503 248.047 C 266.448 246.812,266.359 245.317,266.306 244.727 C 266.253 244.136,266.165 243.081,266.111 242.383 C 266.006 241.017,265.680 238.279,265.534 237.526 C 265.484 237.272,265.386 236.569,265.317 235.964 C 265.210 235.039,264.868 233.008,264.340 230.176 C 264.280 229.854,264.098 229.019,263.936 228.320 C 263.774 227.622,263.604 226.862,263.559 226.632 C 263.491 226.288,262.422 222.080,262.226 221.387 C 262.195 221.279,262.105 220.928,262.024 220.605 C 261.944 220.283,261.518 218.877,261.079 217.480 C 260.640 216.084,260.267 214.897,260.250 214.844 C 260.234 214.790,260.169 214.614,260.105 214.453 C 260.042 214.292,259.886 213.809,259.757 213.379 C 258.914 210.554,256.360 204.521,253.762 199.219 C 252.947 197.554,252.228 196.147,252.165 196.094 C 252.102 196.040,251.832 195.557,251.565 195.020 C 251.298 194.482,250.969 193.927,250.833 193.785 C 250.697 193.643,250.586 193.421,250.586 193.292 C 250.586 193.163,250.278 192.590,249.902 192.020 C 249.526 191.449,249.219 190.951,249.219 190.914 C 249.219 190.762,247.938 188.765,247.803 188.704 C 247.722 188.669,247.656 188.557,247.656 188.457 C 247.656 188.291,246.334 186.167,246.088 185.938 C 246.030 185.884,245.699 185.390,245.351 184.841 C 245.004 184.291,244.501 183.588,244.234 183.278 C 243.966 182.968,243.698 182.561,243.638 182.373 C 243.578 182.185,243.446 182.031,243.346 182.031 C 243.246 182.031,243.164 181.952,243.164 181.854 C 243.164 181.643,240.257 177.734,239.374 176.758 C 239.034 176.382,238.627 175.889,238.469 175.664 C 238.312 175.438,237.700 174.699,237.109 174.022 C 236.519 173.345,235.771 172.484,235.449 172.108 C 234.905 171.475,232.270 168.685,230.647 167.025 C 228.154 164.475,223.787 160.491,221.777 158.933 C 221.670 158.850,221.318 158.560,220.996 158.289 C 219.850 157.327,217.384 155.400,216.366 154.671 C 214.399 153.262,209.079 149.662,208.422 149.295 C 207.727 148.907,207.601 148.830,206.348 148.027 C 205.918 147.752,205.083 147.259,204.492 146.931 C 203.901 146.604,202.671 145.918,201.758 145.406 C 199.259 144.006,193.029 141.031,190.332 139.949 C 189.580 139.648,188.688 139.281,188.349 139.134 C 188.011 138.987,187.611 138.867,187.461 138.867 C 187.310 138.867,187.104 138.789,187.002 138.694 C 186.900 138.598,186.113 138.287,185.254 138.001 C 184.395 137.716,183.516 137.399,183.301 137.297 C 182.690 137.008,181.250 136.532,181.250 136.620 C 181.250 136.663,180.959 136.577,180.603 136.428 C 179.963 136.161,174.968 134.685,174.023 134.485 C 173.755 134.428,172.700 134.175,171.680 133.924 C 170.659 133.673,169.757 133.459,169.674 133.448 C 169.592 133.437,169.285 133.379,168.991 133.320 C 168.697 133.260,168.237 133.168,167.969 133.115 C 167.700 133.062,166.646 132.851,165.625 132.646 C 164.604 132.441,163.374 132.222,162.891 132.159 C 162.407 132.096,161.484 131.958,160.840 131.852 C 160.195 131.745,159.185 131.609,158.594 131.549 C 158.003 131.488,157.300 131.399,157.031 131.351 C 156.763 131.302,155.884 131.212,155.078 131.150 C 154.272 131.088,153.262 130.998,152.832 130.950 C 152.132 130.872,148.962 130.732,144.658 130.589 C 143.702 130.557,143.095 130.617,143.045 130.748 " stroke="none" fill="#44b464" fill-rule="evenodd"></path><path id="path1" d="M128.906 131.748 C 128.745 131.782,127.515 131.954,126.172 132.131 C 55.384 141.456,7.019 211.320,22.670 281.641 C 26.282 297.869,33.471 313.731,43.160 326.850 L 44.557 328.742 37.498 363.931 C 33.616 383.286,30.393 399.319,30.335 399.561 C 30.099 400.557,31.491 399.980,59.717 387.375 C 75.266 380.431,90.405 373.677,93.359 372.367 L 98.730 369.983 100.586 370.666 C 137.282 384.170,178.468 379.673,210.742 358.638 C 214.423 356.238,221.221 351.276,222.656 349.940 C 222.817 349.790,223.916 348.844,225.098 347.838 C 247.050 329.150,263.019 299.464,266.304 271.240 L 266.434 270.117 249.857 270.117 L 233.279 270.117 233.029 271.631 C 227.364 305.848,198.112 335.956,163.166 343.536 C 108.209 355.457,55.145 314.446,53.387 258.691 C 53.288 255.553,53.218 254.920,52.930 254.590 C 51.136 252.532,53.851 234.635,57.523 224.318 C 65.911 200.744,82.565 182.677,105.957 171.776 C 112.216 168.860,125.890 164.844,129.563 164.844 C 129.631 164.844,129.688 157.373,129.688 148.242 C 129.688 135.079,129.637 131.645,129.443 131.663 C 129.309 131.676,129.067 131.714,128.906 131.748 M96.484 234.492 C 82.800 237.019,77.339 252.593,86.791 262.139 C 99.699 275.175,120.862 260.535,113.280 243.814 C 110.515 237.717,102.653 233.352,96.484 234.492 M140.234 234.568 C 127.144 236.661,121.780 252.517,130.929 262.072 C 141.088 272.683,158.891 265.556,158.886 250.879 C 158.882 240.690,150.081 232.993,140.234 234.568 M183.961 234.679 C 172.797 236.700,167.041 249.280,172.795 259.082 C 179.023 269.691,194.505 269.766,200.849 259.218 C 208.074 247.204,197.739 232.185,183.961 234.679 " stroke="none" fill="#040404" fill-rule="evenodd"></path><path id="path2" d="M253.320 24.900 C 253.320 25.034,254.516 25.627,254.606 25.538 C 254.648 25.495,254.376 25.314,254.001 25.136 C 253.627 24.957,253.320 24.851,253.320 24.900 M293.750 91.467 C 293.750 91.501,294.036 91.787,294.385 92.102 L 295.020 92.676 294.446 92.041 C 293.911 91.449,293.750 91.316,293.750 91.467 M298.730 96.289 C 299.260 96.826,299.736 97.266,299.790 97.266 C 299.844 97.266,299.455 96.826,298.926 96.289 C 298.397 95.752,297.920 95.313,297.866 95.313 C 297.813 95.313,298.201 95.752,298.730 96.289 M301.074 98.633 C 301.603 99.170,302.080 99.609,302.134 99.609 C 302.187 99.609,301.799 99.170,301.270 98.633 C 300.740 98.096,300.264 97.656,300.210 97.656 C 300.156 97.656,300.545 98.096,301.074 98.633 M144.289 98.185 C 144.532 98.232,144.884 98.230,145.071 98.181 C 145.257 98.132,145.059 98.094,144.629 98.096 C 144.199 98.098,144.046 98.138,144.289 98.185 M145.947 98.182 C 146.135 98.231,146.443 98.231,146.631 98.182 C 146.819 98.132,146.665 98.092,146.289 98.092 C 145.913 98.092,145.759 98.132,145.947 98.182 M305.078 102.795 C 305.078 102.829,305.364 103.115,305.713 103.430 L 306.348 104.004 305.774 103.369 C 305.239 102.777,305.078 102.645,305.078 102.795 M275.977 119.824 C 276.341 120.200,276.683 120.508,276.737 120.508 C 276.790 120.508,276.536 120.200,276.172 119.824 C 275.807 119.448,275.465 119.141,275.412 119.141 C 275.358 119.141,275.612 119.448,275.977 119.824 M280.859 124.866 C 280.859 124.899,281.145 125.185,281.494 125.501 L 282.129 126.074 281.555 125.439 C 281.021 124.848,280.859 124.715,280.859 124.866 M253.320 143.457 C 253.904 144.048,254.425 144.531,254.479 144.531 C 254.533 144.531,254.099 144.048,253.516 143.457 C 252.932 142.866,252.411 142.383,252.357 142.383 C 252.303 142.383,252.737 142.866,253.320 143.457 M256.836 147.131 C 256.836 147.165,257.122 147.451,257.471 147.766 L 258.105 148.340 257.532 147.705 C 256.997 147.113,256.836 146.981,256.836 147.131 M269.708 162.661 C 269.827 162.883,270.020 163.124,270.138 163.196 C 270.291 163.291,270.290 163.214,270.136 162.925 C 270.017 162.703,269.824 162.462,269.706 162.390 C 269.553 162.295,269.553 162.372,269.708 162.661 M228.906 165.332 C 229.271 165.708,229.613 166.016,229.666 166.016 C 229.720 166.016,229.466 165.708,229.102 165.332 C 228.737 164.956,228.395 164.648,228.341 164.648 C 228.288 164.648,228.542 164.956,228.906 165.332 M271.882 165.527 C 271.883 165.635,272.063 165.942,272.283 166.211 C 272.548 166.535,272.615 166.568,272.481 166.309 C 272.151 165.672,271.881 165.318,271.882 165.527 M231.836 168.262 C 232.200 168.638,232.542 168.945,232.596 168.945 C 232.650 168.945,232.396 168.638,232.031 168.262 C 231.667 167.886,231.325 167.578,231.271 167.578 C 231.217 167.578,231.472 167.886,231.836 168.262 M205.957 188.867 C 206.377 189.297,206.764 189.648,206.818 189.648 C 206.871 189.648,206.572 189.297,206.152 188.867 C 205.733 188.438,205.346 188.086,205.292 188.086 C 205.238 188.086,205.537 188.438,205.957 188.867 M208.008 190.918 C 208.372 191.294,208.714 191.602,208.768 191.602 C 208.822 191.602,208.568 191.294,208.203 190.918 C 207.839 190.542,207.497 190.234,207.443 190.234 C 207.389 190.234,207.643 190.542,208.008 190.918 M218.495 203.921 C 218.689 204.252,218.972 204.625,219.125 204.751 C 219.278 204.877,219.156 204.607,218.855 204.150 C 218.223 203.192,217.973 203.033,218.495 203.921 M364.694 243.555 C 364.694 243.931,364.734 244.084,364.783 243.896 C 364.832 243.708,364.832 243.401,364.783 243.213 C 364.734 243.025,364.694 243.179,364.694 243.555 M397.506 245.703 C 397.506 246.079,397.546 246.233,397.596 246.045 C 397.645 245.857,397.645 245.549,397.596 245.361 C 397.546 245.173,397.506 245.327,397.506 245.703 " stroke="none" fill="#44bc64" fill-rule="evenodd"></path><path id="path3" d="" stroke="none" fill="#248868" fill-rule="evenodd"></path><path id="path4" d="" stroke="none" fill="#248868" fill-rule="evenodd"></path></g></svg>