<svg xmlns="http://www.w3.org/2000/svg" xmlns:xlink="http://www.w3.org/1999/xlink" width="244" zoomAndPan="magnify" viewBox="0 0 183 58.499998" height="78" preserveAspectRatio="xMidYMid meet" version="1.0"><defs><g/><clipPath id="0807142b9c"><path d="M 30 4.367188 L 63 4.367188 L 63 37 L 30 37 Z M 30 4.367188 " clip-rule="nonzero"/></clipPath><clipPath id="4ee1764dd4"><path d="M 14 20 L 46 20 L 46 54.9375 L 14 54.9375 Z M 14 20 " clip-rule="nonzero"/></clipPath></defs><g clip-path="url(#0807142b9c)"><path fill="#42b762" d="M 30.195312 8.453125 C 45.566406 8.453125 58.015625 20.90625 58.015625 36.277344 L 62.101562 36.277344 C 62.101562 18.667969 47.800781 4.367188 30.195312 4.367188 Z M 30.195312 8.453125 " fill-opacity="1" fill-rule="evenodd"/></g><path fill="#42b762" d="M 53.882812 36.277344 C 53.882812 23.191406 43.277344 12.589844 30.195312 12.589844 L 30.195312 16.675781 C 40.992188 16.675781 49.796875 25.429688 49.796875 36.277344 Z M 53.882812 36.277344 " fill-opacity="1" fill-rule="evenodd"/><path fill="#42b762" d="M 45.664062 36.277344 C 45.664062 27.714844 38.707031 20.761719 30.148438 20.761719 L 30.148438 24.847656 C 36.421875 24.847656 41.527344 29.953125 41.527344 36.226562 L 45.613281 36.226562 Z M 45.664062 36.277344 " fill-opacity="1" fill-rule="evenodd"/><g clip-path="url(#4ee1764dd4)"><path fill="#ffffff" d="M 18.765625 36.277344 C 18.765625 30.585938 22.949219 25.867188 28.445312 25.039062 L 28.445312 20.90625 C 20.710938 21.78125 14.679688 28.347656 14.679688 36.324219 C 14.679688 39.925781 15.894531 43.230469 17.988281 45.859375 C 17.9375 45.761719 17.839844 45.664062 17.792969 45.617188 L 15.992188 54.613281 L 24.601562 50.769531 L 24.554688 50.769531 C 26.304688 51.453125 28.199219 51.839844 30.242188 51.839844 C 38.125 51.839844 44.691406 45.90625 45.613281 38.269531 L 41.480469 38.269531 C 40.554688 43.621094 35.886719 47.753906 30.242188 47.753906 C 23.96875 47.753906 18.863281 42.648438 18.863281 36.375 Z M 17.988281 45.859375 C 18.082031 45.957031 18.132812 46.054688 18.230469 46.148438 C 18.132812 46.054688 18.082031 45.957031 17.988281 45.859375 Z M 18.230469 46.148438 C 18.328125 46.246094 18.375 46.34375 18.472656 46.441406 C 18.375 46.34375 18.328125 46.246094 18.230469 46.148438 Z M 18.472656 46.441406 C 18.570312 46.539062 18.617188 46.636719 18.714844 46.734375 C 18.617188 46.636719 18.570312 46.539062 18.472656 46.441406 Z M 18.714844 46.734375 C 18.8125 46.832031 18.863281 46.929688 18.960938 46.976562 C 18.863281 46.878906 18.8125 46.78125 18.714844 46.734375 Z M 18.960938 47.027344 C 19.058594 47.125 19.105469 47.171875 19.203125 47.269531 C 19.105469 47.171875 19.058594 47.125 18.960938 47.027344 Z M 19.203125 47.316406 C 19.300781 47.414062 19.347656 47.464844 19.445312 47.5625 C 19.347656 47.464844 19.300781 47.414062 19.203125 47.316406 Z M 19.738281 47.804688 C 19.835938 47.902344 19.933594 47.949219 20.03125 48.046875 C 19.933594 47.949219 19.835938 47.902344 19.738281 47.804688 Z M 20.03125 48.046875 C 20.125 48.144531 20.222656 48.191406 20.320312 48.289062 C 20.222656 48.191406 20.125 48.144531 20.03125 48.046875 Z M 20.320312 48.289062 C 20.417969 48.386719 20.515625 48.4375 20.613281 48.535156 C 20.515625 48.4375 20.417969 48.386719 20.320312 48.289062 Z M 20.613281 48.535156 C 20.808594 48.679688 21.003906 48.824219 21.195312 48.972656 C 21.003906 48.824219 20.808594 48.679688 20.613281 48.535156 Z M 21.195312 48.972656 C 21.292969 49.019531 21.390625 49.117188 21.488281 49.167969 C 21.390625 49.117188 21.292969 49.019531 21.195312 48.972656 Z M 21.488281 49.167969 C 21.585938 49.214844 21.683594 49.3125 21.78125 49.359375 C 21.683594 49.3125 21.585938 49.214844 21.488281 49.167969 Z M 21.78125 49.359375 C 21.878906 49.410156 21.976562 49.507812 22.074219 49.554688 C 21.976562 49.507812 21.878906 49.410156 21.78125 49.359375 Z M 22.414062 49.75 C 22.511719 49.796875 22.609375 49.847656 22.753906 49.945312 C 22.65625 49.894531 22.558594 49.847656 22.414062 49.75 Z M 22.753906 49.945312 C 22.851562 49.992188 22.949219 50.042969 23.09375 50.089844 C 22.996094 50.042969 22.898438 49.992188 22.753906 49.945312 Z M 23.09375 50.140625 C 23.191406 50.1875 23.289062 50.234375 23.433594 50.285156 C 23.335938 50.234375 23.238281 50.1875 23.09375 50.140625 Z M 23.433594 50.332031 C 23.53125 50.382812 23.628906 50.429688 23.773438 50.480469 C 23.675781 50.429688 23.582031 50.382812 23.433594 50.332031 Z M 23.773438 50.480469 C 23.871094 50.527344 24.019531 50.578125 24.117188 50.625 C 24.019531 50.578125 23.871094 50.527344 23.773438 50.480469 Z M 24.117188 50.625 C 24.210938 50.675781 24.359375 50.722656 24.457031 50.769531 C 24.359375 50.722656 24.210938 50.675781 24.117188 50.625 Z M 22.414062 49.796875 C 22.316406 49.75 22.21875 49.652344 22.074219 49.605469 Z M 19.6875 47.804688 C 19.589844 47.707031 19.496094 47.660156 19.445312 47.5625 Z M 19.6875 47.804688 " fill-opacity="1" fill-rule="evenodd"/></g><path fill="#ffffff" d="M 24.554688 33.796875 C 25.671875 33.796875 26.597656 34.71875 26.597656 35.839844 C 26.597656 36.957031 25.671875 37.882812 24.554688 37.882812 C 23.433594 37.882812 22.511719 36.957031 22.511719 35.839844 C 22.511719 34.71875 23.433594 33.796875 24.554688 33.796875 Z M 35.644531 33.796875 C 36.761719 33.796875 37.6875 34.71875 37.6875 35.839844 C 37.6875 36.957031 36.761719 37.882812 35.644531 37.882812 C 34.523438 37.882812 33.601562 36.957031 33.601562 35.839844 C 33.601562 34.71875 34.523438 33.796875 35.644531 33.796875 Z M 30.097656 33.796875 C 31.214844 33.796875 32.140625 34.71875 32.140625 35.839844 C 32.140625 36.957031 31.214844 37.882812 30.097656 37.882812 C 28.980469 37.882812 28.054688 36.957031 28.054688 35.839844 C 28.054688 34.71875 28.980469 33.796875 30.097656 33.796875 Z M 30.097656 33.796875 " fill-opacity="1" fill-rule="evenodd"/><g fill="#ffffff" fill-opacity="1"><g transform="translate(64.596418, 44.20216)"><g><path d="M 0.578125 -18.390625 L 0.578125 -22.515625 L 20.390625 -22.515625 L 20.390625 -18.390625 L 12.828125 -18.390625 L 12.828125 0 L 8.171875 0 L 8.171875 -18.390625 Z M 0.578125 -18.390625 "/></g></g></g><g fill="#ffffff" fill-opacity="1"><g transform="translate(84.721688, 44.20216)"><g><path d="M 16.75 -2.09375 C 15.71875 -1.257812 14.660156 -0.644531 13.578125 -0.25 C 12.503906 0.132812 11.300781 0.328125 9.96875 0.328125 C 8.707031 0.328125 7.523438 0.101562 6.421875 -0.34375 C 5.316406 -0.800781 4.359375 -1.414062 3.546875 -2.1875 C 2.742188 -2.957031 2.113281 -3.875 1.65625 -4.9375 C 1.195312 -6 0.96875 -7.140625 0.96875 -8.359375 C 0.96875 -9.554688 1.1875 -10.6875 1.625 -11.75 C 2.0625 -12.8125 2.664062 -13.734375 3.4375 -14.515625 C 4.207031 -15.296875 5.125 -15.910156 6.1875 -16.359375 C 7.25 -16.816406 8.378906 -17.046875 9.578125 -17.046875 C 10.753906 -17.046875 11.851562 -16.8125 12.875 -16.34375 C 13.894531 -15.882812 14.773438 -15.257812 15.515625 -14.46875 C 16.253906 -13.675781 16.832031 -12.726562 17.25 -11.625 C 17.664062 -10.519531 17.875 -9.320312 17.875 -8.03125 L 17.875 -6.875 L 5.40625 -6.875 C 5.707031 -5.832031 6.285156 -4.988281 7.140625 -4.34375 C 7.992188 -3.695312 9 -3.375 10.15625 -3.375 C 10.882812 -3.375 11.570312 -3.488281 12.21875 -3.71875 C 12.863281 -3.957031 13.410156 -4.296875 13.859375 -4.734375 Z M 9.484375 -13.40625 C 8.472656 -13.40625 7.601562 -13.097656 6.875 -12.484375 C 6.144531 -11.878906 5.644531 -11.0625 5.375 -10.03125 L 13.5625 -10.03125 C 13.289062 -11.019531 12.785156 -11.828125 12.046875 -12.453125 C 11.304688 -13.085938 10.453125 -13.40625 9.484375 -13.40625 Z M 9.484375 -13.40625 "/></g></g></g><g fill="#ffffff" fill-opacity="1"><g transform="translate(102.725114, 44.20216)"><g><path d="M 6.140625 -23.46875 L 6.140625 0 L 1.734375 0 L 1.734375 -22.515625 Z M 6.140625 -23.46875 "/></g></g></g><g fill="#ffffff" fill-opacity="1"><g transform="translate(109.733544, 44.20216)"><g><path d="M 16.75 -2.09375 C 15.71875 -1.257812 14.660156 -0.644531 13.578125 -0.25 C 12.503906 0.132812 11.300781 0.328125 9.96875 0.328125 C 8.707031 0.328125 7.523438 0.101562 6.421875 -0.34375 C 5.316406 -0.800781 4.359375 -1.414062 3.546875 -2.1875 C 2.742188 -2.957031 2.113281 -3.875 1.65625 -4.9375 C 1.195312 -6 0.96875 -7.140625 0.96875 -8.359375 C 0.96875 -9.554688 1.1875 -10.6875 1.625 -11.75 C 2.0625 -12.8125 2.664062 -13.734375 3.4375 -14.515625 C 4.207031 -15.296875 5.125 -15.910156 6.1875 -16.359375 C 7.25 -16.816406 8.378906 -17.046875 9.578125 -17.046875 C 10.753906 -17.046875 11.851562 -16.8125 12.875 -16.34375 C 13.894531 -15.882812 14.773438 -15.257812 15.515625 -14.46875 C 16.253906 -13.675781 16.832031 -12.726562 17.25 -11.625 C 17.664062 -10.519531 17.875 -9.320312 17.875 -8.03125 L 17.875 -6.875 L 5.40625 -6.875 C 5.707031 -5.832031 6.285156 -4.988281 7.140625 -4.34375 C 7.992188 -3.695312 9 -3.375 10.15625 -3.375 C 10.882812 -3.375 11.570312 -3.488281 12.21875 -3.71875 C 12.863281 -3.957031 13.410156 -4.296875 13.859375 -4.734375 Z M 9.484375 -13.40625 C 8.472656 -13.40625 7.601562 -13.097656 6.875 -12.484375 C 6.144531 -11.878906 5.644531 -11.0625 5.375 -10.03125 L 13.5625 -10.03125 C 13.289062 -11.019531 12.785156 -11.828125 12.046875 -12.453125 C 11.304688 -13.085938 10.453125 -13.40625 9.484375 -13.40625 Z M 9.484375 -13.40625 "/></g></g></g><g fill="#ffffff" fill-opacity="1"><g transform="translate(127.736972, 44.20216)"><g><path d="M 1.734375 6.71875 L 1.734375 -16.75 L 6.078125 -16.75 L 6.078125 -15.375 C 6.742188 -15.90625 7.484375 -16.304688 8.296875 -16.578125 C 9.109375 -16.847656 9.957031 -16.984375 10.84375 -16.984375 C 12.019531 -16.984375 13.125 -16.753906 14.15625 -16.296875 C 15.195312 -15.847656 16.101562 -15.238281 16.875 -14.46875 C 17.65625 -13.695312 18.265625 -12.785156 18.703125 -11.734375 C 19.140625 -10.679688 19.359375 -9.554688 19.359375 -8.359375 C 19.359375 -7.160156 19.128906 -6.035156 18.671875 -4.984375 C 18.222656 -3.929688 17.613281 -3.019531 16.84375 -2.25 C 16.070312 -1.476562 15.15625 -0.875 14.09375 -0.4375 C 13.039062 0 11.910156 0.21875 10.703125 0.21875 C 9.890625 0.21875 9.09375 0.109375 8.3125 -0.109375 C 7.53125 -0.335938 6.804688 -0.664062 6.140625 -1.09375 L 6.140625 6.71875 Z M 10.125 -13.21875 C 9.332031 -13.21875 8.59375 -13.082031 7.90625 -12.8125 C 7.21875 -12.539062 6.628906 -12.148438 6.140625 -11.640625 L 6.140625 -5.046875 C 6.609375 -4.578125 7.191406 -4.203125 7.890625 -3.921875 C 8.585938 -3.640625 9.332031 -3.5 10.125 -3.5 C 11.5 -3.5 12.65625 -3.960938 13.59375 -4.890625 C 14.539062 -5.828125 15.015625 -6.984375 15.015625 -8.359375 C 15.015625 -9.734375 14.535156 -10.882812 13.578125 -11.8125 C 12.628906 -12.75 11.476562 -13.21875 10.125 -13.21875 Z M 10.125 -13.21875 "/></g></g></g><g fill="#ffffff" fill-opacity="1"><g transform="translate(147.21926, 44.20216)"><g><path d="M 3.921875 -18.75 C 3.234375 -18.75 2.644531 -18.992188 2.15625 -19.484375 C 1.664062 -19.972656 1.421875 -20.5625 1.421875 -21.25 C 1.421875 -21.9375 1.664062 -22.523438 2.15625 -23.015625 C 2.644531 -23.515625 3.234375 -23.765625 3.921875 -23.765625 C 4.609375 -23.765625 5.195312 -23.515625 5.6875 -23.015625 C 6.1875 -22.523438 6.4375 -21.9375 6.4375 -21.25 C 6.4375 -20.5625 6.1875 -19.972656 5.6875 -19.484375 C 5.195312 -18.992188 4.609375 -18.75 3.921875 -18.75 Z M 6.140625 -16.75 L 6.140625 0 L 1.734375 0 L 1.734375 -16.75 Z M 6.140625 -16.75 "/></g></g></g><g fill="#ffffff" fill-opacity="1"><g transform="translate(154.22769, 44.20216)"><g><path d="M 16.75 -2.09375 C 15.71875 -1.257812 14.660156 -0.644531 13.578125 -0.25 C 12.503906 0.132812 11.300781 0.328125 9.96875 0.328125 C 8.707031 0.328125 7.523438 0.101562 6.421875 -0.34375 C 5.316406 -0.800781 4.359375 -1.414062 3.546875 -2.1875 C 2.742188 -2.957031 2.113281 -3.875 1.65625 -4.9375 C 1.195312 -6 0.96875 -7.140625 0.96875 -8.359375 C 0.96875 -9.554688 1.1875 -10.6875 1.625 -11.75 C 2.0625 -12.8125 2.664062 -13.734375 3.4375 -14.515625 C 4.207031 -15.296875 5.125 -15.910156 6.1875 -16.359375 C 7.25 -16.816406 8.378906 -17.046875 9.578125 -17.046875 C 10.753906 -17.046875 11.851562 -16.8125 12.875 -16.34375 C 13.894531 -15.882812 14.773438 -15.257812 15.515625 -14.46875 C 16.253906 -13.675781 16.832031 -12.726562 17.25 -11.625 C 17.664062 -10.519531 17.875 -9.320312 17.875 -8.03125 L 17.875 -6.875 L 5.40625 -6.875 C 5.707031 -5.832031 6.285156 -4.988281 7.140625 -4.34375 C 7.992188 -3.695312 9 -3.375 10.15625 -3.375 C 10.882812 -3.375 11.570312 -3.488281 12.21875 -3.71875 C 12.863281 -3.957031 13.410156 -4.296875 13.859375 -4.734375 Z M 9.484375 -13.40625 C 8.472656 -13.40625 7.601562 -13.097656 6.875 -12.484375 C 6.144531 -11.878906 5.644531 -11.0625 5.375 -10.03125 L 13.5625 -10.03125 C 13.289062 -11.019531 12.785156 -11.828125 12.046875 -12.453125 C 11.304688 -13.085938 10.453125 -13.40625 9.484375 -13.40625 Z M 9.484375 -13.40625 "/></g></g></g></svg>