<svg xmlns="http://www.w3.org/2000/svg" xmlns:xlink="http://www.w3.org/1999/xlink" width="124" zoomAndPan="magnify" viewBox="0 0 93 30.000001" height="40" preserveAspectRatio="xMidYMid meet" version="1.0"><defs><g/><clipPath id="8239c9f0d5"><path d="M 2 9 L 21 9 L 21 29.03125 L 2 29.03125 Z M 2 9 " clip-rule="nonzero"/></clipPath></defs><path fill="#42b762" d="M 11.289062 2.363281 C 20.179688 2.363281 27.382812 9.566406 27.382812 18.453125 L 29.746094 18.453125 C 29.746094 8.269531 21.472656 0 11.289062 0 Z M 11.289062 2.363281 " fill-opacity="1" fill-rule="evenodd"/><path fill="#42b762" d="M 24.992188 18.453125 C 24.992188 10.886719 18.859375 4.753906 11.289062 4.753906 L 11.289062 7.117188 C 17.535156 7.117188 22.628906 12.179688 22.628906 18.453125 Z M 24.992188 18.453125 " fill-opacity="1" fill-rule="evenodd"/><path fill="#42b762" d="M 20.234375 18.453125 C 20.234375 13.503906 16.214844 9.480469 11.261719 9.480469 L 11.261719 11.84375 C 14.890625 11.84375 17.84375 14.796875 17.84375 18.425781 L 20.207031 18.425781 Z M 20.234375 18.453125 " fill-opacity="1" fill-rule="evenodd"/><g clip-path="url(#8239c9f0d5)"><path fill="#000000" d="M 4.679688 18.453125 C 4.679688 15.164062 7.097656 12.433594 10.277344 11.957031 L 10.277344 9.566406 C 5.804688 10.070312 2.316406 13.867188 2.316406 18.484375 C 2.316406 20.566406 3.019531 22.476562 4.230469 23.996094 C 4.199219 23.941406 4.144531 23.882812 4.117188 23.855469 L 3.074219 29.058594 L 8.054688 26.839844 L 8.027344 26.839844 C 9.039062 27.230469 10.136719 27.457031 11.316406 27.457031 C 15.875 27.457031 19.671875 24.023438 20.207031 19.609375 L 17.816406 19.609375 C 17.28125 22.703125 14.582031 25.09375 11.316406 25.09375 C 7.6875 25.09375 4.734375 22.140625 4.734375 18.511719 Z M 4.230469 23.996094 C 4.285156 24.054688 4.3125 24.109375 4.371094 24.164062 C 4.3125 24.109375 4.285156 24.054688 4.230469 23.996094 Z M 4.371094 24.164062 C 4.425781 24.222656 4.453125 24.277344 4.511719 24.335938 C 4.453125 24.277344 4.425781 24.222656 4.371094 24.164062 Z M 4.511719 24.335938 C 4.566406 24.390625 4.59375 24.445312 4.652344 24.503906 C 4.59375 24.445312 4.566406 24.390625 4.511719 24.335938 Z M 4.652344 24.503906 C 4.707031 24.558594 4.734375 24.617188 4.792969 24.644531 C 4.734375 24.585938 4.707031 24.53125 4.652344 24.503906 Z M 4.792969 24.671875 C 4.847656 24.726562 4.875 24.757812 4.933594 24.8125 C 4.875 24.757812 4.847656 24.726562 4.792969 24.671875 Z M 4.933594 24.839844 C 4.988281 24.898438 5.015625 24.925781 5.074219 24.980469 C 5.015625 24.925781 4.988281 24.898438 4.933594 24.839844 Z M 5.242188 25.121094 C 5.296875 25.179688 5.355469 25.207031 5.410156 25.261719 C 5.355469 25.207031 5.296875 25.179688 5.242188 25.121094 Z M 5.410156 25.261719 C 5.464844 25.320312 5.523438 25.347656 5.578125 25.402344 C 5.523438 25.347656 5.464844 25.320312 5.410156 25.261719 Z M 5.578125 25.402344 C 5.636719 25.460938 5.691406 25.488281 5.746094 25.542969 C 5.691406 25.488281 5.636719 25.460938 5.578125 25.402344 Z M 5.746094 25.542969 C 5.859375 25.628906 5.972656 25.710938 6.085938 25.796875 C 5.972656 25.710938 5.859375 25.628906 5.746094 25.542969 Z M 6.085938 25.796875 C 6.140625 25.824219 6.199219 25.882812 6.253906 25.910156 C 6.199219 25.882812 6.140625 25.824219 6.085938 25.796875 Z M 6.253906 25.910156 C 6.3125 25.9375 6.367188 25.992188 6.421875 26.023438 C 6.367188 25.992188 6.3125 25.9375 6.253906 25.910156 Z M 6.421875 26.023438 C 6.480469 26.050781 6.535156 26.105469 6.59375 26.132812 C 6.535156 26.105469 6.480469 26.050781 6.421875 26.023438 Z M 6.789062 26.246094 C 6.84375 26.273438 6.902344 26.304688 6.984375 26.359375 C 6.929688 26.332031 6.875 26.304688 6.789062 26.246094 Z M 6.984375 26.359375 C 7.042969 26.386719 7.097656 26.414062 7.183594 26.445312 C 7.125 26.414062 7.070312 26.386719 6.984375 26.359375 Z M 7.183594 26.472656 C 7.238281 26.5 7.296875 26.527344 7.378906 26.558594 C 7.324219 26.527344 7.265625 26.5 7.183594 26.472656 Z M 7.378906 26.585938 C 7.4375 26.613281 7.492188 26.640625 7.578125 26.667969 C 7.519531 26.640625 7.464844 26.613281 7.378906 26.585938 Z M 7.578125 26.667969 C 7.632812 26.699219 7.71875 26.726562 7.773438 26.753906 C 7.71875 26.726562 7.632812 26.699219 7.578125 26.667969 Z M 7.773438 26.753906 C 7.828125 26.78125 7.914062 26.808594 7.96875 26.839844 C 7.914062 26.808594 7.828125 26.78125 7.773438 26.753906 Z M 6.789062 26.273438 C 6.734375 26.246094 6.675781 26.191406 6.59375 26.164062 Z M 5.214844 25.121094 C 5.15625 25.066406 5.101562 25.039062 5.074219 24.980469 Z M 5.214844 25.121094 " fill-opacity="1" fill-rule="evenodd"/></g><path fill="#000000" d="M 8.027344 17.019531 C 8.671875 17.019531 9.207031 17.554688 9.207031 18.203125 C 9.207031 18.847656 8.671875 19.382812 8.027344 19.382812 C 7.378906 19.382812 6.84375 18.847656 6.84375 18.203125 C 6.84375 17.554688 7.378906 17.019531 8.027344 17.019531 Z M 14.441406 17.019531 C 15.085938 17.019531 15.621094 17.554688 15.621094 18.203125 C 15.621094 18.847656 15.085938 19.382812 14.441406 19.382812 C 13.792969 19.382812 13.257812 18.847656 13.257812 18.203125 C 13.257812 17.554688 13.792969 17.019531 14.441406 17.019531 Z M 11.234375 17.019531 C 11.878906 17.019531 12.414062 17.554688 12.414062 18.203125 C 12.414062 18.847656 11.878906 19.382812 11.234375 19.382812 C 10.585938 19.382812 10.050781 18.847656 10.050781 18.203125 C 10.050781 17.554688 10.585938 17.019531 11.234375 17.019531 Z M 11.234375 17.019531 " fill-opacity="1" fill-rule="evenodd"/><g fill="#000000" fill-opacity="1"><g transform="translate(29.43155, 21.676392)"><g><path d="M 0.3125 -10.015625 L 0.3125 -12.25 L 11.09375 -12.25 L 11.09375 -10.015625 L 6.984375 -10.015625 L 6.984375 0 L 4.4375 0 L 4.4375 -10.015625 Z M 0.3125 -10.015625 "/></g></g></g><g fill="#000000" fill-opacity="1"><g transform="translate(40.38332, 21.676392)"><g><path d="M 9.125 -1.140625 C 8.5625 -0.679688 7.984375 -0.347656 7.390625 -0.140625 C 6.804688 0.0664062 6.148438 0.171875 5.421875 0.171875 C 4.734375 0.171875 4.085938 0.0507812 3.484375 -0.1875 C 2.890625 -0.4375 2.375 -0.769531 1.9375 -1.1875 C 1.5 -1.601562 1.15625 -2.097656 0.90625 -2.671875 C 0.65625 -3.253906 0.53125 -3.878906 0.53125 -4.546875 C 0.53125 -5.203125 0.648438 -5.816406 0.890625 -6.390625 C 1.128906 -6.972656 1.457031 -7.476562 1.875 -7.90625 C 2.289062 -8.332031 2.785156 -8.664062 3.359375 -8.90625 C 3.941406 -9.15625 4.5625 -9.28125 5.21875 -9.28125 C 5.851562 -9.28125 6.445312 -9.148438 7 -8.890625 C 7.5625 -8.640625 8.039062 -8.300781 8.4375 -7.875 C 8.84375 -7.445312 9.160156 -6.929688 9.390625 -6.328125 C 9.617188 -5.722656 9.734375 -5.070312 9.734375 -4.375 L 9.734375 -3.75 L 2.9375 -3.75 C 3.101562 -3.175781 3.414062 -2.710938 3.875 -2.359375 C 4.34375 -2.015625 4.894531 -1.84375 5.53125 -1.84375 C 5.925781 -1.84375 6.296875 -1.90625 6.640625 -2.03125 C 6.992188 -2.15625 7.296875 -2.335938 7.546875 -2.578125 Z M 5.15625 -7.296875 C 4.613281 -7.296875 4.144531 -7.128906 3.75 -6.796875 C 3.351562 -6.460938 3.078125 -6.015625 2.921875 -5.453125 L 7.390625 -5.453125 C 7.234375 -5.992188 6.953125 -6.4375 6.546875 -6.78125 C 6.148438 -7.125 5.6875 -7.296875 5.15625 -7.296875 Z M 5.15625 -7.296875 "/></g></g></g><g fill="#000000" fill-opacity="1"><g transform="translate(50.180426, 21.676392)"><g><path d="M 3.34375 -12.78125 L 3.34375 0 L 0.9375 0 L 0.9375 -12.25 Z M 3.34375 -12.78125 "/></g></g></g><g fill="#000000" fill-opacity="1"><g transform="translate(53.994273, 21.676392)"><g><path d="M 9.125 -1.140625 C 8.5625 -0.679688 7.984375 -0.347656 7.390625 -0.140625 C 6.804688 0.0664062 6.148438 0.171875 5.421875 0.171875 C 4.734375 0.171875 4.085938 0.0507812 3.484375 -0.1875 C 2.890625 -0.4375 2.375 -0.769531 1.9375 -1.1875 C 1.5 -1.601562 1.15625 -2.097656 0.90625 -2.671875 C 0.65625 -3.253906 0.53125 -3.878906 0.53125 -4.546875 C 0.53125 -5.203125 0.648438 -5.816406 0.890625 -6.390625 C 1.128906 -6.972656 1.457031 -7.476562 1.875 -7.90625 C 2.289062 -8.332031 2.785156 -8.664062 3.359375 -8.90625 C 3.941406 -9.15625 4.5625 -9.28125 5.21875 -9.28125 C 5.851562 -9.28125 6.445312 -9.148438 7 -8.890625 C 7.5625 -8.640625 8.039062 -8.300781 8.4375 -7.875 C 8.84375 -7.445312 9.160156 -6.929688 9.390625 -6.328125 C 9.617188 -5.722656 9.734375 -5.070312 9.734375 -4.375 L 9.734375 -3.75 L 2.9375 -3.75 C 3.101562 -3.175781 3.414062 -2.710938 3.875 -2.359375 C 4.34375 -2.015625 4.894531 -1.84375 5.53125 -1.84375 C 5.925781 -1.84375 6.296875 -1.90625 6.640625 -2.03125 C 6.992188 -2.15625 7.296875 -2.335938 7.546875 -2.578125 Z M 5.15625 -7.296875 C 4.613281 -7.296875 4.144531 -7.128906 3.75 -6.796875 C 3.351562 -6.460938 3.078125 -6.015625 2.921875 -5.453125 L 7.390625 -5.453125 C 7.234375 -5.992188 6.953125 -6.4375 6.546875 -6.78125 C 6.148438 -7.125 5.6875 -7.296875 5.15625 -7.296875 Z M 5.15625 -7.296875 "/></g></g></g><g fill="#000000" fill-opacity="1"><g transform="translate(63.79138, 21.676392)"><g><path d="M 0.9375 3.65625 L 0.9375 -9.125 L 3.3125 -9.125 L 3.3125 -8.359375 C 3.664062 -8.648438 4.066406 -8.867188 4.515625 -9.015625 C 4.960938 -9.160156 5.421875 -9.234375 5.890625 -9.234375 C 6.535156 -9.234375 7.140625 -9.109375 7.703125 -8.859375 C 8.273438 -8.617188 8.769531 -8.289062 9.1875 -7.875 C 9.601562 -7.457031 9.929688 -6.960938 10.171875 -6.390625 C 10.410156 -5.816406 10.53125 -5.203125 10.53125 -4.546875 C 10.53125 -3.890625 10.40625 -3.273438 10.15625 -2.703125 C 9.914062 -2.140625 9.585938 -1.644531 9.171875 -1.21875 C 8.753906 -0.800781 8.253906 -0.472656 7.671875 -0.234375 C 7.097656 0.00390625 6.484375 0.125 5.828125 0.125 C 5.378906 0.125 4.941406 0.0625 4.515625 -0.0625 C 4.097656 -0.1875 3.707031 -0.363281 3.34375 -0.59375 L 3.34375 3.65625 Z M 5.515625 -7.1875 C 5.078125 -7.1875 4.671875 -7.113281 4.296875 -6.96875 C 3.929688 -6.820312 3.613281 -6.609375 3.34375 -6.328125 L 3.34375 -2.75 C 3.601562 -2.488281 3.921875 -2.28125 4.296875 -2.125 C 4.671875 -1.976562 5.078125 -1.90625 5.515625 -1.90625 C 6.253906 -1.90625 6.878906 -2.160156 7.390625 -2.671875 C 7.910156 -3.179688 8.171875 -3.804688 8.171875 -4.546875 C 8.171875 -5.296875 7.910156 -5.921875 7.390625 -6.421875 C 6.867188 -6.929688 6.242188 -7.1875 5.515625 -7.1875 Z M 5.515625 -7.1875 "/></g></g></g><g fill="#000000" fill-opacity="1"><g transform="translate(74.393252, 21.676392)"><g><path d="M 2.140625 -10.203125 C 1.765625 -10.203125 1.441406 -10.332031 1.171875 -10.59375 C 0.898438 -10.863281 0.765625 -11.1875 0.765625 -11.5625 C 0.765625 -11.9375 0.898438 -12.257812 1.171875 -12.53125 C 1.441406 -12.800781 1.765625 -12.9375 2.140625 -12.9375 C 2.503906 -12.9375 2.820312 -12.800781 3.09375 -12.53125 C 3.363281 -12.257812 3.5 -11.9375 3.5 -11.5625 C 3.5 -11.1875 3.363281 -10.863281 3.09375 -10.59375 C 2.820312 -10.332031 2.503906 -10.203125 2.140625 -10.203125 Z M 3.34375 -9.125 L 3.34375 0 L 0.9375 0 L 0.9375 -9.125 Z M 3.34375 -9.125 "/></g></g></g><g fill="#000000" fill-opacity="1"><g transform="translate(78.2071, 21.676392)"><g><path d="M 9.125 -1.140625 C 8.5625 -0.679688 7.984375 -0.347656 7.390625 -0.140625 C 6.804688 0.0664062 6.148438 0.171875 5.421875 0.171875 C 4.734375 0.171875 4.085938 0.0507812 3.484375 -0.1875 C 2.890625 -0.4375 2.375 -0.769531 1.9375 -1.1875 C 1.5 -1.601562 1.15625 -2.097656 0.90625 -2.671875 C 0.65625 -3.253906 0.53125 -3.878906 0.53125 -4.546875 C 0.53125 -5.203125 0.648438 -5.816406 0.890625 -6.390625 C 1.128906 -6.972656 1.457031 -7.476562 1.875 -7.90625 C 2.289062 -8.332031 2.785156 -8.664062 3.359375 -8.90625 C 3.941406 -9.15625 4.5625 -9.28125 5.21875 -9.28125 C 5.851562 -9.28125 6.445312 -9.148438 7 -8.890625 C 7.5625 -8.640625 8.039062 -8.300781 8.4375 -7.875 C 8.84375 -7.445312 9.160156 -6.929688 9.390625 -6.328125 C 9.617188 -5.722656 9.734375 -5.070312 9.734375 -4.375 L 9.734375 -3.75 L 2.9375 -3.75 C 3.101562 -3.175781 3.414062 -2.710938 3.875 -2.359375 C 4.34375 -2.015625 4.894531 -1.84375 5.53125 -1.84375 C 5.925781 -1.84375 6.296875 -1.90625 6.640625 -2.03125 C 6.992188 -2.15625 7.296875 -2.335938 7.546875 -2.578125 Z M 5.15625 -7.296875 C 4.613281 -7.296875 4.144531 -7.128906 3.75 -6.796875 C 3.351562 -6.460938 3.078125 -6.015625 2.921875 -5.453125 L 7.390625 -5.453125 C 7.234375 -5.992188 6.953125 -6.4375 6.546875 -6.78125 C 6.148438 -7.125 5.6875 -7.296875 5.15625 -7.296875 Z M 5.15625 -7.296875 "/></g></g></g></svg>